<svg width="146" height="31" viewBox="0 0 146 31" fill="none" xmlns="http://www.w3.org/2000/svg">
<g style="mix-blend-mode:hard-light">
<path d="M77.334 26.4734C77.0022 26.8051 76.4643 26.8051 76.1326 26.4734L65.3199 15.6606C64.9881 15.3288 64.9881 14.7909 65.3199 14.4592L76.1326 3.64645C76.4643 3.31469 77.0022 3.31469 77.334 3.64645L88.1468 14.4592C88.4784 14.7909 88.4784 15.3288 88.1468 15.6606L77.334 26.4734Z" fill="#FFF"/>
<path d="M77.0937 25.5122C76.8947 25.7112 76.5719 25.7112 76.3729 25.5122L66.281 15.4203C66.0819 15.2212 66.0819 14.8985 66.281 14.6995L76.3729 4.60758C76.5719 4.40852 76.8947 4.40852 77.0937 4.60758L87.1856 14.6995C87.3847 14.8985 87.3847 15.2212 87.1856 15.4203L77.0937 25.5122Z" fill="#FFF" fill-opacity="0.78"/>
<path d="M68.718 12.3341C68.3862 12.0023 68.3862 11.4644 68.718 11.1327L79.5307 0.319927C79.8625 -0.0118343 80.4004 -0.0118343 80.7321 0.319927L91.5449 11.1327C91.8765 11.4644 91.8765 12.0023 91.5449 12.3341L80.7321 23.1468C80.4004 23.4785 79.8625 23.4785 79.5307 23.1468L68.718 12.3341Z" fill="#FFF"/>
<path d="M69.6791 12.0938C69.4801 11.8947 69.4801 11.572 69.6791 11.3729L79.771 1.28106C79.97 1.082 80.2928 1.082 80.4918 1.28106L90.5837 11.3729C90.7827 11.572 90.7827 11.8947 90.5837 12.0938L80.4918 22.1857C80.2928 22.3848 79.97 22.3848 79.771 22.1857L69.6791 12.0938Z" fill="#FFF" fill-opacity="0.78"/>
<path d="M68.718 19.0096C68.3862 18.6778 68.3862 18.1399 68.718 17.808L79.5307 6.9954C79.8625 6.66363 80.4004 6.66363 80.7321 6.9954L91.5449 17.808C91.8765 18.1399 91.8765 18.6778 91.5449 19.0096L80.7321 29.8222C80.4004 30.1541 79.8625 30.1541 79.5307 29.8222L68.718 19.0096Z" fill="#FFF"/>
<path d="M69.6791 18.7692C69.4801 18.5702 69.4801 18.2474 69.6791 18.0485L79.771 7.95653C79.97 7.75746 80.2928 7.75746 80.4918 7.95653L90.5837 18.0485C90.7827 18.2474 90.7827 18.5702 90.5837 18.7692L80.4918 28.8611C80.2928 29.0602 79.97 29.0602 79.771 28.8611L69.6791 18.7692Z" fill="#FFF" fill-opacity="0.78"/>
</g>
<path d="M10.5735 12.9102H8.24041C8.1978 12.6083 8.1108 12.3402 7.9794 12.1058C7.84801 11.8679 7.67933 11.6655 7.47337 11.4986C7.2674 11.3317 7.02947 11.2038 6.75959 11.1151C6.49325 11.0263 6.20384 10.9819 5.89134 10.9819C5.3267 10.9819 4.83487 11.1222 4.41584 11.4027C3.9968 11.6797 3.67188 12.0845 3.44105 12.6172C3.21023 13.1463 3.09482 13.7891 3.09482 14.5455C3.09482 15.3232 3.21023 15.9766 3.44105 16.5057C3.67543 17.0348 4.00213 17.4343 4.42116 17.7042C4.8402 17.9741 5.32493 18.109 5.87536 18.109C6.1843 18.109 6.47017 18.0682 6.73295 17.9865C6.99929 17.9048 7.23544 17.7859 7.44141 17.6296C7.64737 17.4698 7.81783 17.2763 7.95277 17.049C8.09126 16.8217 8.18715 16.5625 8.24041 16.2713L10.5735 16.282C10.5131 16.7827 10.3622 17.2656 10.1207 17.7308C9.88281 18.1925 9.56143 18.6062 9.15661 18.9719C8.75533 19.3342 8.27592 19.6218 7.7184 19.8349C7.16442 20.0444 6.53764 20.1491 5.83807 20.1491C4.86506 20.1491 3.99503 19.929 3.22798 19.4886C2.46449 19.0483 1.8608 18.4109 1.4169 17.5763C0.976562 16.7418 0.756392 15.7315 0.756392 14.5455C0.756392 13.3558 0.980114 12.3438 1.42756 11.5092C1.875 10.6747 2.48224 10.0391 3.24929 9.60227C4.01634 9.16193 4.87926 8.94176 5.83807 8.94176C6.47017 8.94176 7.05611 9.03054 7.59588 9.2081C8.1392 9.38565 8.62038 9.64489 9.03942 9.98579C9.45845 10.3232 9.79936 10.7369 10.0621 11.2269C10.3285 11.717 10.4989 12.2781 10.5735 12.9102ZM22.2523 14.5455C22.2523 15.7351 22.0268 16.7472 21.5758 17.5817C21.1284 18.4162 20.5176 19.0536 19.7434 19.494C18.9728 19.9308 18.1064 20.1491 17.144 20.1491C16.1745 20.1491 15.3045 19.929 14.5339 19.4886C13.7633 19.0483 13.1543 18.4109 12.7069 17.5763C12.2594 16.7418 12.0357 15.7315 12.0357 14.5455C12.0357 13.3558 12.2594 12.3438 12.7069 11.5092C13.1543 10.6747 13.7633 10.0391 14.5339 9.60227C15.3045 9.16193 16.1745 8.94176 17.144 8.94176C18.1064 8.94176 18.9728 9.16193 19.7434 9.60227C20.5176 10.0391 21.1284 10.6747 21.5758 11.5092C22.0268 12.3438 22.2523 13.3558 22.2523 14.5455ZM19.9139 14.5455C19.9139 13.7749 19.7985 13.125 19.5676 12.5959C19.3404 12.0668 19.019 11.6655 18.6035 11.392C18.188 11.1186 17.7015 10.9819 17.144 10.9819C16.5865 10.9819 16.1 11.1186 15.6845 11.392C15.269 11.6655 14.9458 12.0668 14.715 12.5959C14.4877 13.125 14.3741 13.7749 14.3741 14.5455C14.3741 15.3161 14.4877 15.9659 14.715 16.495C14.9458 17.0241 15.269 17.4254 15.6845 17.6989C16.1 17.9723 16.5865 18.109 17.144 18.109C17.7015 18.109 18.188 17.9723 18.6035 17.6989C19.019 17.4254 19.3404 17.0241 19.5676 16.495C19.7985 15.9659 19.9139 15.3161 19.9139 14.5455ZM23.9608 20V9.09091H28.2648C29.0887 9.09091 29.7918 9.23828 30.3742 9.53303C30.9601 9.82422 31.4058 10.2379 31.7112 10.7741C32.0202 11.3068 32.1746 11.9336 32.1746 12.6545C32.1746 13.3789 32.0184 14.0021 31.7059 14.5241C31.3934 15.0426 30.9406 15.4403 30.3476 15.7173C29.7581 15.9943 29.0443 16.1328 28.2062 16.1328H25.3245V14.2791H27.8334C28.2737 14.2791 28.6395 14.2187 28.9307 14.098C29.2219 13.9773 29.4385 13.7962 29.5805 13.5547C29.7261 13.3132 29.7989 13.0131 29.7989 12.6545C29.7989 12.2923 29.7261 11.9869 29.5805 11.7383C29.4385 11.4897 29.2201 11.3015 28.9253 11.1737C28.6341 11.0423 28.2666 10.9766 27.8227 10.9766H26.2673V20H23.9608ZM29.8522 15.0355L32.5635 20H30.0173L27.3646 15.0355H29.8522ZM42.9292 9.09091V20H40.9371L36.191 13.1339H36.1111V20H33.8046V9.09091H35.8287L40.5376 15.9517H40.6334V9.09091H42.9292ZM44.8349 20V9.09091H52.1857V10.9925H47.1413V13.592H51.8075V15.4936H47.1413V18.0984H52.207V20H44.8349ZM54.0194 20V9.09091H58.3234C59.1473 9.09091 59.8504 9.23828 60.4328 9.53303C61.0187 9.82422 61.4644 10.2379 61.7698 10.7741C62.0787 11.3068 62.2332 11.9336 62.2332 12.6545C62.2332 13.3789 62.077 14.0021 61.7645 14.5241C61.452 15.0426 60.9992 15.4403 60.4062 15.7173C59.8167 15.9943 59.1029 16.1328 58.2648 16.1328H55.3831V14.2791H57.892C58.3323 14.2791 58.6981 14.2187 58.9893 14.098C59.2805 13.9773 59.4971 13.7962 59.6391 13.5547C59.7847 13.3132 59.8575 13.0131 59.8575 12.6545C59.8575 12.2923 59.7847 11.9869 59.6391 11.7383C59.4971 11.4897 59.2787 11.3015 58.9839 11.1737C58.6927 11.0423 58.3252 10.9766 57.8813 10.9766H56.3259V20H54.0194ZM59.9108 15.0355L62.6221 20H60.0759L57.4232 15.0355H59.9108ZM95.1083 20V9.09091H99.4762C100.279 9.09091 100.948 9.20987 101.484 9.4478C102.021 9.68572 102.424 10.016 102.694 10.4386C102.963 10.8576 103.098 11.3406 103.098 11.8874C103.098 12.3136 103.013 12.6882 102.843 13.0114C102.672 13.331 102.438 13.5937 102.14 13.7997C101.845 14.0021 101.507 14.146 101.127 14.2312V14.3377C101.543 14.3555 101.932 14.4727 102.294 14.6893C102.66 14.9059 102.956 15.2095 103.184 15.6001C103.411 15.9872 103.525 16.4489 103.525 16.9851C103.525 17.5639 103.381 18.0806 103.093 18.5352C102.809 18.9862 102.388 19.343 101.831 19.6058C101.273 19.8686 100.586 20 99.7692 20H95.1083ZM97.4148 18.1143H99.2951C99.9379 18.1143 100.407 17.9918 100.701 17.7468C100.996 17.4982 101.143 17.168 101.143 16.756C101.143 16.4542 101.071 16.1879 100.925 15.957C100.779 15.7262 100.572 15.5451 100.302 15.4137C100.036 15.2823 99.7177 15.2166 99.3484 15.2166H97.4148V18.1143ZM97.4148 13.6559H99.1246C99.4407 13.6559 99.7212 13.6009 99.9663 13.4908C100.215 13.3771 100.41 13.2173 100.552 13.0114C100.698 12.8054 100.771 12.5586 100.771 12.271C100.771 11.8768 100.63 11.5589 100.35 11.3175C100.073 11.076 99.6786 10.9553 99.1673 10.9553H97.4148V13.6559ZM105.025 20V9.09091H107.332V18.0984H112.009V20H105.025ZM123.136 14.5455C123.136 15.7351 122.911 16.7472 122.46 17.5817C122.012 18.4162 121.401 19.0536 120.627 19.494C119.857 19.9308 118.99 20.1491 118.028 20.1491C117.058 20.1491 116.188 19.929 115.418 19.4886C114.647 19.0483 114.038 18.4109 113.591 17.5763C113.143 16.7418 112.919 15.7315 112.919 14.5455C112.919 13.3558 113.143 12.3438 113.591 11.5092C114.038 10.6747 114.647 10.0391 115.418 9.60227C116.188 9.16193 117.058 8.94176 118.028 8.94176C118.99 8.94176 119.857 9.16193 120.627 9.60227C121.401 10.0391 122.012 10.6747 122.46 11.5092C122.911 12.3438 123.136 13.3558 123.136 14.5455ZM120.798 14.5455C120.798 13.7749 120.682 13.125 120.451 12.5959C120.224 12.0668 119.903 11.6655 119.487 11.392C119.072 11.1186 118.585 10.9819 118.028 10.9819C117.47 10.9819 116.984 11.1186 116.568 11.392C116.153 11.6655 115.83 12.0668 115.599 12.5959C115.372 13.125 115.258 13.7749 115.258 14.5455C115.258 15.3161 115.372 15.9659 115.599 16.495C115.83 17.0241 116.153 17.4254 116.568 17.6989C116.984 17.9723 117.47 18.109 118.028 18.109C118.585 18.109 119.072 17.9723 119.487 17.6989C119.903 17.4254 120.224 17.0241 120.451 16.495C120.682 15.9659 120.798 15.3161 120.798 14.5455ZM134.47 12.9102H132.137C132.094 12.6083 132.007 12.3402 131.876 12.1058C131.744 11.8679 131.576 11.6655 131.37 11.4986C131.164 11.3317 130.926 11.2038 130.656 11.1151C130.39 11.0263 130.1 10.9819 129.788 10.9819C129.223 10.9819 128.731 11.1222 128.312 11.4027C127.893 11.6797 127.568 12.0845 127.338 12.6172C127.107 13.1463 126.991 13.7891 126.991 14.5455C126.991 15.3232 127.107 15.9766 127.338 16.5057C127.572 17.0348 127.899 17.4343 128.318 17.7042C128.737 17.9741 129.221 18.109 129.772 18.109C130.081 18.109 130.367 18.0682 130.629 17.9865C130.896 17.9048 131.132 17.7859 131.338 17.6296C131.544 17.4698 131.714 17.2763 131.849 17.049C131.988 16.8217 132.084 16.5625 132.137 16.2713L134.47 16.282C134.41 16.7827 134.259 17.2656 134.017 17.7308C133.779 18.1925 133.458 18.6062 133.053 18.9719C132.652 19.3342 132.172 19.6218 131.615 19.8349C131.061 20.0444 130.434 20.1491 129.735 20.1491C128.762 20.1491 127.892 19.929 127.124 19.4886C126.361 19.0483 125.757 18.4109 125.313 17.5763C124.873 16.7418 124.653 15.7315 124.653 14.5455C124.653 13.3558 124.877 12.3438 125.324 11.5092C125.771 10.6747 126.379 10.0391 127.146 9.60227C127.913 9.16193 128.776 8.94176 129.735 8.94176C130.367 8.94176 130.953 9.03054 131.492 9.2081C132.036 9.38565 132.517 9.64489 132.936 9.98579C133.355 10.3232 133.696 10.7369 133.959 11.2269C134.225 11.717 134.395 12.2781 134.47 12.9102ZM136.124 20V9.09091H138.43V13.9009H138.574L142.5 9.09091H145.265L141.216 13.9755L145.312 20H142.553L139.565 15.5149L138.43 16.8999V20H136.124Z" fill="white"/>
<defs>
<linearGradient id="paint0_linear_11_60" x1="78.4323" y1="0.071106" x2="78.4323" y2="30.0711" gradientUnits="userSpaceOnUse">
<stop stop-color="#8BDDFF"/>
<stop offset="1" stop-color="#29C1FF"/>
</linearGradient>
<linearGradient id="paint1_linear_11_60" x1="78.4323" y1="0.071106" x2="78.4323" y2="30.0711" gradientUnits="userSpaceOnUse">
<stop stop-color="#8BDDFF"/>
<stop offset="1" stop-color="#29C1FF"/>
</linearGradient>
<linearGradient id="paint2_linear_11_60" x1="78.4323" y1="0.071106" x2="78.4323" y2="30.0711" gradientUnits="userSpaceOnUse">
<stop stop-color="#8BDDFF"/>
<stop offset="1" stop-color="#29C1FF"/>
</linearGradient>
</defs>
</svg>
